<?xml version="1.0" standalone="no"?>
<!DOCTYPE svg PUBLIC "-//W3C//DTD SVG 20010904//EN"
 "http://www.w3.org/TR/2001/REC-SVG-20010904/DTD/svg10.dtd">
<svg version="1.0" xmlns="http://www.w3.org/2000/svg"
 width="260.000000pt" height="260.000000pt" viewBox="0 0 260.000000 260.000000"
 preserveAspectRatio="xMidYMid meet">
<metadata>
Created by potrace 1.11, written by Peter Selinger 2001-2013
</metadata>
<g transform="translate(0.000000,260.000000) scale(0.100000,-0.100000)"
fill="#000000" stroke="none">
<path d="M206 1731 c-3 -4 6 -19 20 -32 49 -46 49 -49 -10 -197 -68 -171 -146
-373 -146 -378 0 -2 60 -4 133 -4 l133 0 86 228 85 227 467 3 c256 1 466 -1
466 -5 0 -4 -14 -47 -31 -95 l-31 -87 -88 -55 c-82 -52 -92 -56 -149 -56 -33
0 -61 4 -61 9 0 5 18 53 39 107 22 55 37 102 34 106 -2 5 -63 8 -134 8 -114 0
-130 -2 -136 -17 -3 -10 -34 -92 -69 -182 -35 -91 -64 -171 -64 -178 0 -10 55
-13 278 -13 l277 0 155 93 155 92 70 187 c39 104 72 188 75 188 3 0 10 -8 17
-18 11 -19 -32 -146 -151 -445 -25 -64 -31 -90 -22 -93 7 -3 66 -3 132 -2
l119 3 44 113 44 112 267 0 268 0 26 71 c14 38 26 74 26 80 0 5 -104 9 -260 9
-143 0 -260 2 -260 4 0 1 5 17 11 35 l11 31 264 0 265 0 15 35 c7 19 14 55 14
80 l0 45 -1189 0 c-655 0 -1192 -4 -1195 -9z"/>
<path d="M551 1488 c-97 -253 -131 -346 -131 -356 0 -10 33 -12 131 -10 l131
3 68 180 c38 99 69 186 70 193 0 9 -32 12 -130 12 -126 0 -131 -1 -139 -22z"/>
<path d="M36 953 c-8 -37 -12 -71 -10 -75 8 -13 34 12 34 32 0 11 10 20 30 24
35 7 40 23 8 28 -30 4 -25 22 7 26 42 5 31 32 -14 32 l-39 0 -16 -67z"/>
<path d="M156 1012 c-2 -4 -10 -35 -17 -69 -13 -62 -8 -86 12 -66 13 13 39
130 31 138 -8 7 -20 6 -26 -3z"/>
<path d="M215 1008 c-17 -56 -26 -121 -18 -129 11 -11 28 6 36 36 4 19 5 19 6
-1 1 -26 28 -51 41 -38 14 14 38 134 29 140 -14 8 -29 -5 -29 -27 0 -10 -4
-19 -10 -19 -5 0 -10 11 -10 25 0 18 -5 25 -20 25 -11 0 -22 -6 -25 -12z"/>
<path d="M346 1008 c-3 -7 -10 -37 -16 -66 -15 -66 -6 -80 42 -66 40 12 59 46
56 99 -3 38 -4 40 -41 43 -24 2 -39 -1 -41 -10z m49 -55 c-7 -40 -20 -61 -31
-51 -12 13 7 88 23 88 12 0 14 -8 8 -37z"/>
<path d="M518 1014 c-3 -3 -2 -21 4 -41 5 -19 7 -46 3 -60 -8 -32 2 -48 21
-32 8 6 14 18 14 25 0 8 11 32 25 54 14 22 25 44 25 50 0 18 -29 10 -35 -10
-3 -11 -11 -20 -16 -20 -5 0 -9 9 -9 20 0 19 -19 27 -32 14z"/>
<path d="M644 1012 c-33 -22 -49 -116 -23 -133 23 -14 47 -10 68 12 25 27 37
94 21 114 -13 16 -48 20 -66 7z m33 -59 c-7 -38 -22 -61 -33 -50 -10 10 15 87
28 87 7 0 8 -13 5 -37z"/>
<path d="M740 959 c-11 -53 -11 -62 3 -76 22 -22 65 -9 78 24 5 15 13 47 16
71 9 67 -18 50 -35 -21 -19 -77 -36 -74 -27 3 6 49 4 60 -8 60 -9 0 -19 -20
-27 -61z"/>
<path d="M875 1008 c-8 -23 -25 -103 -25 -120 0 -29 20 -21 31 12 13 36 29 39
29 6 0 -14 5 -28 10 -31 11 -7 19 9 24 46 1 13 6 32 10 41 15 34 3 53 -37 56
-24 2 -39 -1 -42 -10z m53 -30 c-6 -18 -28 -21 -28 -4 0 9 7 16 16 16 9 0 14
-5 12 -12z"/>
<path d="M1057 1013 c-3 -5 -10 -34 -17 -67 -12 -56 -6 -83 16 -68 10 7 34 98
34 128 0 15 -25 20 -33 7z"/>
<path d="M1111 978 c-18 -66 -19 -103 -1 -103 9 0 17 13 20 30 l6 30 11 -32
c12 -34 26 -42 39 -21 9 15 34 132 29 137 -12 11 -35 -12 -36 -36 l-1 -28 -10
33 c-16 47 -43 42 -57 -10z"/>
<path d="M1245 998 c-19 -83 -23 -113 -18 -121 8 -13 33 22 34 47 0 15 4 10
13 -14 7 -19 19 -35 26 -35 13 0 39 84 40 128 0 30 -23 13 -34 -24 l-10 -34
-5 35 c-7 42 -37 54 -46 18z"/>
<path d="M1375 1008 c-8 -24 -25 -103 -25 -121 0 -15 7 -18 37 -15 39 3 60 28
24 28 -28 0 -27 28 1 32 28 4 36 28 9 28 -31 0 -26 28 6 32 45 5 40 28 -6 28
-24 0 -43 -5 -46 -12z"/>
<path d="M1469 950 c-7 -38 -9 -73 -6 -76 10 -11 37 17 37 37 0 29 18 22 22
-8 2 -14 8 -28 15 -30 13 -5 25 46 27 107 1 34 0 35 -40 38 l-42 3 -13 -71z
m65 25 c-4 -8 -10 -15 -15 -15 -5 0 -9 7 -9 15 0 8 7 15 15 15 9 0 12 -6 9
-15z"/>
<path d="M1657 950 c-25 -47 -32 -72 -25 -76 7 -4 18 2 26 14 18 27 38 28 45
2 3 -11 10 -20 16 -20 7 0 11 27 11 75 0 67 -2 75 -19 75 -14 0 -29 -20 -54
-70z"/>
<path d="M1760 1005 c0 -8 6 -15 14 -15 11 0 11 -9 1 -55 -8 -32 -9 -57 -4
-61 13 -8 29 5 29 24 0 37 22 92 35 92 8 0 15 7 15 15 0 11 -12 15 -45 15 -33
0 -45 -4 -45 -15z"/>
<path d="M1877 1013 c-3 -5 -10 -34 -17 -67 -8 -41 -9 -61 -1 -69 7 -7 15 0
26 27 9 20 20 34 25 31 5 -3 7 -12 3 -20 -3 -8 -2 -22 1 -31 11 -29 33 3 45
67 7 34 10 63 7 66 -11 11 -36 -7 -36 -27 0 -11 -7 -20 -15 -20 -11 0 -14 7
-9 25 5 19 2 25 -9 25 -9 0 -18 -3 -20 -7z"/>
<path d="M1995 998 c-28 -127 -27 -131 25 -126 41 4 53 28 15 28 -23 0 -26 3
-22 23 19 76 19 97 3 97 -8 0 -18 -10 -21 -22z"/>
<path d="M2107 1013 c-3 -4 -10 -34 -17 -67 -13 -66 -7 -79 36 -74 32 4 46 28
15 28 -28 0 -27 28 1 32 28 4 36 28 9 28 -31 0 -26 28 7 32 15 2 27 8 27 13 0
12 -71 19 -78 8z"/>
<path d="M2207 1013 c-12 -11 -8 -23 9 -23 10 0 14 -6 10 -17 -13 -47 -17 -91
-7 -97 13 -9 27 19 36 71 4 29 12 43 26 46 10 3 19 10 19 16 0 12 -82 16 -93
4z"/>
<path d="M2315 998 c-28 -127 -28 -131 25 -126 40 4 54 28 16 28 -35 0 -34 28
1 32 34 4 42 25 11 30 -33 4 -29 22 6 28 44 7 37 25 -11 28 -37 3 -43 0 -48
-20z"/>
</g>
</svg>
